<?xml version="1.0" standalone="no"?>
<!DOCTYPE svg PUBLIC "-//W3C//DTD SVG 20010904//EN"
 "http://www.w3.org/TR/2001/REC-SVG-20010904/DTD/svg10.dtd">
<svg version="1.0" xmlns="http://www.w3.org/2000/svg"
 width="599.000000pt" height="599.000000pt" viewBox="0 0 599.000000 599.000000"
 preserveAspectRatio="xMidYMid meet">

<g transform="translate(0.000000,599.000000) scale(0.100000,-0.100000)"
fill="#000000" stroke="none">
<path d="M2815 5968 c-16 -5 -45 -9 -63 -9 -18 0 -70 -15 -116 -34 -45 -19
-91 -32 -102 -29 -27 7 -175 -62 -266 -124 -51 -34 -85 -66 -100 -92 -25 -44
-38 -51 -38 -20 0 23 -16 25 -75 9 -42 -12 -105 -53 -105 -70 0 -6 16 -17 36
-25 l37 -15 -37 -27 c-30 -21 -37 -31 -33 -51 3 -16 -6 -47 -24 -83 -35 -69
-40 -142 -20 -303 14 -112 24 -155 42 -166 7 -4 5 -33 -5 -85 -8 -43 -17 -120
-21 -171 -3 -51 -12 -114 -20 -140 -21 -70 -19 -100 10 -125 22 -19 25 -29 23
-77 -2 -68 5 -92 32 -109 19 -12 20 -11 14 15 -4 16 -11 32 -15 37 -13 14 -11
106 1 106 11 0 14 -7 24 -52 9 -38 22 -35 30 7 4 19 12 37 17 41 8 4 9 -4 4
-26 -5 -23 -4 -30 4 -26 6 4 11 0 11 -10 0 -13 3 -14 14 -5 11 9 15 9 19 -1 3
-9 7 -8 12 4 6 16 10 16 48 -6 41 -22 114 -45 170 -52 16 -2 33 -6 38 -9 5 -4
9 -2 9 4 0 5 -10 13 -22 17 -12 3 -39 19 -61 35 -26 19 -52 29 -74 29 -25 0
-43 8 -65 30 -16 17 -34 30 -39 30 -5 0 -9 6 -9 13 0 7 -9 19 -21 27 -11 8
-27 30 -35 48 -11 28 -17 32 -36 26 -62 -19 -74 5 -28 57 17 19 36 43 42 54
10 19 10 19 -8 5 -10 -8 -4 1 13 19 18 18 30 38 26 44 -3 5 -21 -7 -41 -29
-19 -21 -31 -32 -26 -24 5 8 7 53 5 99 -2 58 1 86 9 91 9 5 12 42 12 117 0
138 14 211 42 225 12 6 39 32 61 59 79 97 100 118 127 125 24 5 31 0 63 -45
20 -28 41 -49 45 -46 5 3 20 24 35 48 l27 43 73 -1 c40 0 68 -3 62 -7 -7 -4
-23 -8 -37 -8 -36 0 -57 -15 -35 -24 16 -6 16 -8 2 -29 -30 -47 -4 -50 71 -8
40 22 72 37 72 34 0 -4 -24 -28 -52 -54 -35 -31 -47 -48 -36 -49 19 0 178 149
178 168 0 18 -24 15 -53 -8 -35 -28 -45 -25 -18 4 13 13 35 27 49 31 23 6 25
8 8 14 -16 6 -14 10 15 32 29 22 109 46 109 34 0 -3 -24 -18 -52 -35 -29 -16
-48 -30 -42 -30 15 0 118 64 150 94 16 14 43 29 61 32 18 3 31 11 30 16 -1 5
9 14 23 19 21 7 22 7 10 -3 -20 -17 -60 -92 -60 -112 0 -17 30 -22 45 -7 6 5
21 12 35 16 20 6 23 5 13 -6 -24 -24 -16 -49 16 -49 16 0 42 -3 59 -6 27 -5
30 -9 22 -25 -6 -10 -10 -33 -11 -51 -1 -32 -1 -32 -10 -8 -5 14 -28 38 -51
53 -59 38 -128 37 -208 -3 -33 -17 -60 -33 -60 -36 0 -3 33 -4 73 -2 39 1 86
-1 102 -5 l30 -8 -30 14 -30 14 28 6 c15 4 27 12 27 17 0 19 47 10 78 -16 26
-22 32 -34 32 -65 0 -45 -15 -60 -24 -24 -4 14 -11 25 -17 25 -7 0 -9 -10 -5
-24 3 -14 2 -28 -4 -31 -5 -3 -10 -28 -10 -56 0 -42 4 -53 31 -76 17 -16 50
-45 72 -65 23 -20 43 -35 45 -33 2 1 -10 24 -26 51 -25 39 -28 51 -19 66 14
22 27 23 27 3 0 -8 -8 -15 -17 -15 -12 0 -7 -7 15 -21 18 -12 36 -18 40 -14 4
4 1 10 -5 12 -17 6 -17 23 0 23 6 0 18 -14 25 -30 17 -38 58 -60 112 -60 l41
0 -26 -37 c-29 -44 -32 -63 -7 -63 13 0 14 2 3 9 -10 7 -11 13 -2 30 21 38 29
22 23 -44 -4 -61 -4 -65 17 -65 16 0 21 7 23 28 0 15 2 32 3 37 2 6 3 17 4 26
2 24 80 74 94 60 8 -8 3 -19 -16 -38 -14 -16 -33 -46 -43 -68 -9 -22 -25 -52
-35 -67 -11 -14 -19 -30 -19 -35 0 -4 4 -1 10 7 5 8 12 11 16 7 4 -4 2 -13 -5
-20 -10 -9 -15 -8 -27 8 -14 19 -15 18 -13 -10 2 -36 -28 -108 -41 -100 -6 4
-10 -7 -10 -25 0 -17 4 -29 9 -26 5 3 8 0 8 -7 -3 -23 33 -124 48 -137 27 -22
30 -1 7 45 -29 59 -28 62 10 30 26 -22 39 -26 70 -22 31 4 52 -2 112 -34 41
-21 81 -39 89 -39 27 0 48 -46 41 -89 -5 -33 -3 -41 15 -50 29 -16 53 -66 49
-104 -4 -43 -21 -37 -30 10 -3 21 -11 49 -17 63 -9 21 -10 17 -4 -20 4 -25 7
-63 8 -85 0 -31 5 -43 23 -53 23 -13 29 -36 12 -47 -5 -3 -10 -19 -10 -35 0
-16 -11 -42 -25 -58 -29 -34 -31 -42 -10 -42 8 0 19 9 25 20 21 38 29 20 14
-31 -9 -28 -14 -52 -12 -54 9 -8 48 16 48 30 0 18 85 75 112 75 10 0 18 4 18
9 0 12 -52 11 -68 -2 -25 -20 -24 3 2 37 14 19 26 41 26 50 0 8 9 18 20 21 31
10 24 25 -12 26 -24 1 -27 3 -10 6 12 2 22 9 22 14 0 6 7 17 15 25 18 18 9 44
-16 44 -10 0 -19 7 -19 15 0 8 -4 15 -10 15 -15 0 -12 17 7 40 10 11 28 20 41
20 13 0 36 7 52 15 l29 15 -19 -42 c-22 -49 -25 -85 -8 -90 8 -3 12 -22 11
-49 -1 -39 0 -41 9 -19 6 14 26 55 44 93 23 45 32 75 28 91 -11 45 22 38 79
-18 69 -66 79 -105 60 -221 -20 -112 -42 -184 -64 -208 -10 -12 -19 -28 -19
-37 0 -26 -105 -124 -127 -118 -13 4 -19 -1 -20 -14 -4 -45 52 -28 123 39 51
49 122 192 136 276 9 54 16 149 18 227 1 24 1 24 15 6 19 -25 21 -22 29 47 6
47 5 58 -8 63 -9 4 -24 0 -33 -7 -15 -13 -15 -12 -3 11 7 14 22 32 33 41 20
16 20 18 4 43 -19 28 -37 32 -69 15 -11 -6 -22 -9 -24 -6 -6 6 24 74 53 118
39 59 7 86 -35 29 -19 -25 -100 -76 -108 -67 -5 5 124 209 151 238 21 22 24
30 12 26 -12 -4 -16 -3 -11 4 3 6 14 9 23 6 10 -2 24 7 35 21 19 25 19 25 -3
19 -18 -4 -21 -2 -16 14 14 43 -52 24 -149 -44 -28 -20 -27 -17 13 42 64 94
82 151 48 151 -7 0 -40 -29 -75 -65 -35 -36 -67 -65 -72 -65 -6 0 -10 14 -10
30 0 36 68 110 101 110 52 0 122 53 134 102 5 21 1 33 -19 52 -29 30 -64 33
-108 10 -43 -22 -57 -6 -35 41 16 33 16 42 2 101 -20 88 -48 138 -113 206 -62
66 -138 108 -194 108 -28 0 -38 4 -38 16 0 29 -34 9 -58 -34 -25 -44 -34 -48
-76 -32 -35 13 -33 42 5 64 16 10 34 29 39 42 5 13 16 24 24 24 26 0 288 -110
317 -133 15 -12 33 -32 40 -44 7 -13 14 -21 16 -19 3 2 -6 20 -18 38 -26 40
-68 70 -124 88 -22 7 -61 28 -87 46 -26 18 -71 45 -100 60 -77 38 -108 63
-102 79 4 10 0 12 -15 8 -12 -3 -28 0 -36 7 -9 7 -18 10 -21 7 -3 -3 3 -13 14
-23 26 -22 12 -38 -43 -47 -48 -8 -175 29 -175 51 0 8 -7 11 -19 7 -11 -3 -28
3 -42 14 -22 18 -22 21 -9 35 11 11 47 17 133 22 67 4 117 11 117 17 0 7 -50
7 -147 2 -82 -4 -214 -9 -295 -11 -129 -3 -153 -1 -190 16 -47 21 -86 24 -133
8z m-101 -38 c-17 -11 -46 -22 -65 -25 -32 -5 -31 -4 16 20 59 29 93 33 49 5z
m139 -27 c-7 -2 -21 -2 -30 0 -10 3 -4 5 12 5 17 0 24 -2 18 -5z m467 -27 l38
-34 -24 -23 -25 -23 -24 30 c-22 28 -41 40 -98 58 -33 11 -7 26 45 26 44 0 56
-5 88 -34z m-710 -4 c0 -4 -13 -15 -29 -25 -22 -13 -30 -14 -34 -5 -3 10 -10
8 -26 -6 -30 -28 -36 -14 -7 17 18 20 35 27 61 27 19 0 35 -4 35 -8z m308 2
c-7 -6 -171 -24 -177 -19 -2 2 12 8 30 14 36 10 156 15 147 5z m102 -4 c0 -5
-5 -10 -11 -10 -5 0 -7 5 -4 10 3 6 8 10 11 10 2 0 4 -4 4 -10z m70 0 c-20
-13 -60 -13 -60 0 0 6 17 10 38 10 27 0 33 -3 22 -10z m-172 -32 c-3 -7 -13
-15 -23 -16 -10 -3 -15 0 -11 7 12 19 -2 12 -24 -11 -16 -17 -25 -20 -37 -12
-25 15 -21 28 12 35 53 12 87 10 83 -3z m253 -18 c-27 -23 -37 -25 -47 -9 -9
15 14 29 46 29 l25 -1 -24 -19z m59 2 c0 -16 -48 -54 -59 -47 -18 11 -13 24
17 39 31 17 42 19 42 8z m246 -20 c44 -15 82 -31 85 -37 2 -5 -8 -14 -22 -19
-21 -7 -30 -5 -48 13 -11 11 -27 21 -34 21 -22 0 -89 -38 -104 -60 -17 -25
-73 -28 -73 -5 0 19 88 115 104 115 6 0 47 -13 92 -28z m-211 -11 c13 -42 -43
-87 -72 -58 -14 14 -13 19 13 46 34 35 50 38 59 12z m-785 -8 c-1 -22 -120
-74 -120 -53 0 12 81 60 103 60 9 0 17 -3 17 -7z m320 -14 c0 -6 -4 -7 -10 -4
-5 3 -10 11 -10 16 0 6 5 7 10 4 6 -3 10 -11 10 -16z m865 11 c8 -13 -25 -13
-45 0 -12 8 -9 10 12 10 15 0 30 -4 33 -10z m-591 -9 c3 -5 -5 -16 -19 -25
-19 -13 -25 -13 -25 -3 0 26 33 47 44 28z m652 -7 c17 -14 17 -15 1 -10 -10 3
-23 6 -28 6 -5 0 -9 5 -9 10 0 14 13 12 36 -6z m-1081 -33 c-9 -16 -25 -3 -18
15 4 10 9 12 15 6 6 -6 7 -15 3 -21z m125 -10 c0 -18 -18 -41 -32 -41 -11 0
-10 13 2 45 11 28 30 26 30 -4z m-190 -7 c0 -19 -8 -28 -35 -40 -63 -26 -73
-17 -25 26 52 47 60 49 60 14z m-360 -19 c-19 -19 -39 -35 -44 -35 -12 1 59
70 71 70 4 0 -8 -16 -27 -35z m765 25 c-3 -5 -11 -10 -16 -10 -6 0 -7 5 -4 10
3 6 11 10 16 10 6 0 7 -4 4 -10z m-587 -20 c-8 -12 -24 -20 -40 -20 -38 0 -35
17 5 29 47 13 48 13 35 -9z m762 12 c0 -5 -11 -14 -25 -20 -28 -13 -35 1 -7
17 21 13 32 14 32 3z m495 -2 c-3 -5 -27 -10 -53 -9 -38 1 -42 2 -22 9 37 12
82 12 75 0z m-710 -10 c-3 -5 -10 -10 -16 -10 -5 0 -9 5 -9 10 0 6 7 10 16 10
8 0 12 -4 9 -10z m-585 -38 c0 -13 -47 -32 -77 -32 -25 0 -26 0 -8 20 18 20
85 29 85 12z m517 2 c-3 -3 -12 -4 -19 -1 -8 3 -5 6 6 6 11 1 17 -2 13 -5z
m686 -1 c-7 -2 -19 -2 -25 0 -7 3 -2 5 12 5 14 0 19 -2 13 -5z m-266 -18 c7
-20 5 -22 -39 -30 -33 -6 -38 -5 -38 12 0 27 8 33 42 33 17 0 31 -6 35 -15z
m163 -10 c-19 -23 -62 -42 -82 -38 -24 6 -23 19 1 26 15 4 18 1 13 -12 -4 -10
9 -4 34 16 40 32 57 36 34 8z m-843 9 c-3 -3 -12 -4 -19 -1 -8 3 -5 6 6 6 11
1 17 -2 13 -5z m562 -26 c-8 -14 -14 -18 -17 -10 -4 13 17 46 25 38 3 -2 -1
-15 -8 -28z m-988 -9 c-13 -11 -27 -17 -30 -14 -3 4 5 15 19 25 32 24 42 14
11 -11z m854 21 c6 -10 -73 -55 -83 -46 -3 3 -3 7 -1 9 2 2 17 13 33 25 32 24
42 27 51 12z m-260 -10 c3 -5 -8 -16 -25 -25 -28 -15 -30 -15 -30 4 0 12 8 21
23 24 12 2 23 5 24 6 1 0 4 -3 8 -9z m83 -15 c-20 -14 -43 -25 -50 -25 -22 1
42 50 65 50 18 0 16 -4 -15 -25z m752 15 c0 -5 -9 -10 -20 -10 -11 0 -20 5
-20 10 0 6 9 10 20 10 11 0 20 -4 20 -10z m206 -5 c-11 -8 -25 -15 -30 -15 -6
0 -2 7 8 15 11 8 25 15 30 15 6 0 2 -7 -8 -15z m-1756 -10 c-7 -8 -22 -15 -34
-15 -21 1 -21 1 -2 15 27 21 53 20 36 0z m1820 11 c0 -3 -4 -8 -10 -11 -5 -3
-10 -1 -10 4 0 6 5 11 10 11 6 0 10 -2 10 -4z m-1170 -23 c0 -18 -86 -80 -96
-70 -4 4 83 87 92 87 2 0 4 -8 4 -17z m-404 -51 l-47 -47 22 47 c14 30 30 48
43 50 35 6 32 -1 -18 -50z m786 6 c-21 -21 -32 -3 -15 22 16 22 18 23 21 6 2
-10 -1 -23 -6 -28z m198 17 c0 -8 -4 -15 -9 -15 -4 0 -26 -12 -47 -26 l-39
-26 25 28 c47 54 70 66 70 39z m261 -17 c7 -13 17 -26 23 -30 13 -10 -10 -28
-36 -28 -17 0 -60 59 -52 72 11 17 54 8 65 -14z m104 13 c7 -12 -32 -34 -45
-26 -6 3 -10 13 -10 21 0 16 45 20 55 5z m135 -1 c0 -5 -4 -10 -10 -10 -5 0
-10 5 -10 10 0 6 5 10 10 10 6 0 10 -4 10 -10z m150 -9 c74 -39 31 -99 -63
-87 -28 4 -59 12 -69 17 -21 11 -24 59 -6 77 18 18 99 14 138 -7z m-1050 1 c0
-9 -53 -42 -67 -42 -10 1 49 50 60 50 4 0 7 -4 7 -8z m269 -31 c-17 -17 -34
-31 -36 -31 -10 0 19 41 39 54 34 24 33 11 -3 -23z m295 8 c32 -38 33 -49 3
-49 -18 0 -25 8 -34 40 -12 48 -4 51 31 9z m-464 -9 c-6 -12 -9 -24 -6 -28 3
-3 6 -1 6 4 0 5 8 19 18 32 l18 23 -1 -26 c-1 -18 -12 -32 -34 -46 -17 -10
-34 -19 -36 -19 -11 0 -4 25 16 57 23 37 38 39 19 3z m700 7 c0 -8 -9 -22 -19
-31 -26 -24 -39 -1 -15 24 23 23 34 25 34 7z m-300 -22 c0 -8 -4 -15 -9 -15
-13 0 -22 16 -14 24 11 11 23 6 23 -9z m-640 -15 c-14 -11 -32 -20 -41 -20 -9
0 -22 -7 -29 -15 -7 -8 -21 -15 -31 -15 -10 0 -21 -4 -24 -10 -3 -5 -11 -10
-17 -10 -6 0 -1 11 12 25 13 14 31 25 41 25 10 0 21 4 24 10 5 9 56 27 80 29
6 0 -1 -8 -15 -19z m502 -10 c-18 -17 -37 -30 -42 -30 -6 0 4 13 22 30 18 16
38 29 43 29 6 0 -5 -13 -23 -29z m484 16 c18 -18 18 -25 -1 -46 -23 -25 2 -44
39 -30 30 11 86 14 86 4 0 -14 -149 -118 -157 -110 -11 11 -2 131 12 152 10
16 11 24 2 33 -6 6 -8 11 -3 11 4 0 14 -6 22 -14z m344 -78 c40 -88 13 -144
-44 -91 -30 27 -31 31 -11 57 20 26 19 63 -1 74 -11 6 -14 16 -9 31 l7 22 19
-25 c11 -14 28 -44 39 -68z m-2055 63 c-3 -6 -11 -11 -17 -11 -6 0 -6 6 2 15
14 17 26 13 15 -4z m388 -33 c5 -38 -2 -56 -14 -37 -11 18 -11 69 0 69 5 0 11
-15 14 -32z m657 7 c0 -18 -5 -25 -20 -25 -24 0 -25 8 -3 32 21 23 23 23 23
-7z m550 3 c0 -6 11 -8 24 -6 19 4 23 0 24 -22 0 -19 -5 -26 -20 -27 -20 -2
-20 -1 -2 12 11 8 15 15 10 15 -4 0 -22 -12 -39 -26 -21 -18 -33 -22 -35 -14
-3 7 6 21 19 31 13 10 20 19 15 19 -6 0 -20 -9 -32 -21 -26 -24 -44 -18 -44
16 0 17 8 26 28 33 29 10 52 6 52 -10z m-460 -3 c-7 -8 -17 -15 -22 -15 -6 0
-5 7 2 15 7 8 17 15 22 15 6 0 5 -7 -2 -15z m200 3 c0 -13 -68 -63 -75 -56 -2
2 7 18 21 36 26 32 54 43 54 20z m-977 -35 c6 -30 4 -33 -18 -33 -29 0 -31 11
-9 46 19 29 19 29 27 -13z m205 17 c-7 -11 -15 -20 -18 -21 -3 0 -14 -2 -24
-4 -37 -7 -39 8 -5 25 49 25 62 25 47 0z m-288 -8 c0 -16 -39 -44 -53 -39 -8
3 -27 -1 -43 -10 -16 -8 -39 -19 -52 -24 -20 -8 -22 -7 -12 11 6 11 21 20 34
20 13 0 34 8 47 19 13 10 29 16 36 14 6 -2 14 1 18 6 7 13 25 14 25 3z m1095
-2 c-3 -5 -11 -10 -16 -10 -6 0 -7 5 -4 10 3 6 11 10 16 10 6 0 7 -4 4 -10z
m109 -6 c5 -13 2 -15 -21 -9 -16 4 -34 8 -40 8 -7 0 -13 4 -13 9 0 16 68 9 74
-8z m489 -14 c-3 -11 -9 -17 -15 -14 -5 3 -4 12 3 20 16 19 18 18 12 -6z
m-1513 5 c0 -17 -32 -65 -40 -60 -15 9 -12 26 7 47 15 17 33 24 33 13z m758
-26 c-11 -32 -39 -51 -46 -31 -6 18 -26 14 -40 -8 -19 -32 -33 -13 -14 19 10
18 29 32 51 38 60 17 61 17 49 -18z m-908 -5 c0 -9 11 -14 30 -14 17 0 30 -3
30 -7 -1 -12 -58 -79 -62 -73 -3 3 -14 22 -27 44 -20 36 -21 40 -5 57 18 20
34 17 34 -7z m195 17 c5 -9 -31 -41 -47 -41 -5 0 -1 11 8 25 17 26 29 31 39
16z m1385 -1 c0 -8 -51 -40 -65 -40 -14 0 -2 17 23 32 31 20 42 22 42 8z
m-978 -26 c-13 -9 -42 -18 -65 -20 l-42 -4 40 20 c22 11 51 20 65 20 l24 0
-22 -16z m736 -18 c18 -48 15 -56 -17 -56 -23 0 -30 6 -35 26 -4 14 -2 32 3
38 6 7 9 15 6 17 -2 3 4 5 14 6 11 1 22 -10 29 -31z m-1408 8 c0 -2 -15 -4
-32 -3 -27 0 -29 2 -13 8 18 8 45 4 45 -5z m1680 11 c0 -2 -20 -13 -44 -24
-28 -12 -84 -59 -153 -127 -96 -96 -102 -108 -23 -45 14 12 33 21 43 21 9 0
17 6 17 13 0 7 12 20 28 29 23 14 30 14 45 3 11 -8 14 -16 8 -19 -12 -8 -41
-65 -41 -82 0 -7 -9 -18 -19 -23 -16 -9 -20 -6 -25 15 -9 33 10 56 38 49 15
-5 17 -4 7 3 -11 8 -9 14 8 31 11 11 18 21 15 21 -9 0 -62 -44 -120 -101 -35
-33 -60 -49 -78 -49 -26 0 -26 0 -22 70 3 59 8 73 28 90 12 11 18 19 13 20 -6
0 -16 -5 -22 -11 -8 -8 -13 -8 -18 0 -10 17 20 23 60 12 30 -8 36 -7 31 4 -7
18 87 79 111 71 10 -3 34 3 53 13 34 18 60 25 60 16z m-1875 -35 c-10 -11 -20
-18 -23 -15 -3 3 3 14 13 25 10 11 20 18 23 15 3 -3 -3 -14 -13 -25z m48 -61
c-47 -93 -88 -127 -51 -41 19 43 67 106 75 98 2 -2 -9 -27 -24 -57z m1382 31
c-10 -11 -23 -20 -28 -20 -6 0 -2 9 8 20 10 11 23 20 28 20 6 0 2 -9 -8 -20z
m371 -9 c-9 -10 -14 -21 -9 -23 4 -3 2 -3 -6 -1 -7 2 -20 -2 -28 -8 -15 -13
-26 -9 -15 7 12 17 65 54 70 49 3 -3 -3 -13 -12 -24z m-287 -17 c-17 -21 -31
-17 -19 6 6 11 15 18 21 14 6 -4 6 -11 -2 -20z m-84 -28 c-17 -36 -77 -96 -95
-96 -15 0 -12 28 7 57 18 27 93 86 100 79 3 -2 -3 -20 -12 -40z m425 34 c0 -5
-5 -10 -11 -10 -5 0 -7 5 -4 10 3 6 8 10 11 10 2 0 4 -4 4 -10z m107 -37 c-16
-16 -17 -15 -17 17 0 32 1 33 17 17 16 -16 16 -18 0 -34z m-2017 30 c0 -5 -5
-15 -10 -23 -8 -12 -10 -11 -10 8 0 12 5 22 10 22 6 0 10 -3 10 -7z m1970 -5
c0 -7 3 -23 6 -35 6 -20 3 -23 -26 -23 -17 0 -30 3 -28 8 24 48 32 62 40 62 4
0 8 -6 8 -12z m-390 -36 c0 -19 -45 -50 -56 -39 -6 6 39 57 51 57 3 0 5 -8 5
-18z m-1610 -23 c0 -11 -4 -17 -10 -14 -5 3 -10 13 -10 21 0 8 5 14 10 14 6 0
10 -9 10 -21z m1360 -3 c0 -3 -4 -8 -10 -11 -5 -3 -10 -1 -10 4 0 6 5 11 10
11 6 0 10 -2 10 -4z m580 -20 c0 -3 -4 -8 -10 -11 -5 -3 -10 -1 -10 4 0 6 5
11 10 11 6 0 10 -2 10 -4z m-331 -23 c-1 -10 -4 -29 -8 -43 l-7 -24 -17 24
c-15 22 -15 25 0 42 20 23 33 23 32 1z m670 0 c19 -34 -42 -103 -91 -103 -23
0 -10 87 15 105 29 20 64 19 76 -2z m-711 -106 c-30 -25 -34 -26 -45 -10 -18
23 -16 62 2 69 8 4 15 10 15 16 0 5 -4 6 -10 3 -5 -3 -10 -2 -10 3 0 23 16 18
46 -16 l34 -37 -32 -28z m-338 78 c0 -16 -27 -32 -37 -21 -7 7 16 36 28 36 5
0 9 -7 9 -15z m547 -15 c-3 -11 -1 -20 5 -20 5 0 -13 -22 -40 -48 -27 -27 -59
-68 -70 -93 -19 -40 -20 -41 -15 -12 3 20 0 39 -7 48 -11 13 -8 21 15 45 16
16 37 32 47 36 10 3 18 12 18 19 0 12 36 45 48 45 3 0 2 -9 -1 -20z m-1787
-44 c0 -39 -6 -31 -14 19 -5 29 -4 36 3 25 6 -8 11 -28 11 -44z m1146 1 l17
-31 -36 29 c-20 17 -36 36 -36 43 -2 23 37 -6 55 -41z m154 44 c0 -6 -4 -13
-10 -16 -5 -3 -10 1 -10 9 0 9 5 16 10 16 6 0 10 -4 10 -9z m780 5 c0 -3 -4
-8 -10 -11 -5 -3 -10 -1 -10 4 0 6 5 11 10 11 6 0 10 -2 10 -4z m-590 -31 c-7
-8 -17 -15 -23 -15 -5 0 -2 9 8 20 21 23 35 19 15 -5z m670 3 c0 -16 -3 -19
-11 -11 -6 6 -8 16 -5 22 11 17 16 13 16 -11z m-832 -10 c17 -17 15 -28 -7
-28 -22 0 -35 15 -26 30 8 13 18 13 33 -2z m175 -85 c-10 -7 -23 -17 -30 -23
-15 -13 -33 -13 -33 0 0 15 23 64 39 83 15 18 16 17 29 -14 12 -30 12 -34 -5
-46z m157 42 c-26 -28 -35 -27 -25 4 4 13 15 21 27 21 21 0 21 0 -2 -25z m460
-20 c-7 -14 -19 -25 -27 -25 -17 0 -16 4 3 42 11 22 19 27 27 19 8 -8 7 -18
-3 -36z m-520 21 c0 -20 -22 -56 -35 -56 -20 0 -19 30 3 46 17 13 32 18 32 10z
m364 -18 c-7 -22 -52 -68 -66 -68 -12 0 23 60 45 75 28 20 30 19 21 -7z m-196
-30 c-8 -12 -21 -24 -29 -26 -8 -3 -3 7 10 22 30 32 39 34 19 4z m102 8 c0 -2
-19 -18 -42 -35 -23 -17 -37 -31 -32 -31 6 0 29 14 52 31 41 30 60 28 25 -3
-17 -14 -77 -48 -86 -48 -2 0 -4 8 -4 18 0 30 36 72 63 72 13 0 24 -2 24 -4z
m165 -26 c20 -39 19 -83 -2 -102 -31 -27 -113 -70 -113 -60 0 16 84 192 92
192 4 0 14 -13 23 -30z m-2048 -42 c-3 -7 -5 -2 -5 12 0 14 2 19 5 13 2 -7 2
-19 0 -25z m1643 17 c0 -8 -4 -15 -10 -15 -5 0 -10 7 -10 15 0 8 5 15 10 15 6
0 10 -7 10 -15z m301 -12 c-6 -10 -28 -57 -50 -104 -22 -48 -47 -89 -55 -92
-14 -6 -50 15 -52 30 0 4 -4 16 -9 26 -5 13 -1 23 16 38 13 11 42 35 64 54 78
67 104 81 86 48z m-191 -7 c0 -16 -18 -31 -27 -22 -8 8 5 36 17 36 5 0 10 -6
10 -14z m65 -61 c-22 -19 -44 -34 -48 -35 -15 0 9 31 39 50 47 30 52 22 9 -15z
m-205 10 c0 -18 -58 -95 -72 -95 -19 0 -6 36 24 67 29 30 48 41 48 28z m65 -4
c3 -6 -3 -15 -14 -20 -29 -16 -33 -14 -19 9 14 22 24 25 33 11z m660 -1 c9
-14 -74 -90 -98 -90 -11 0 -51 -26 -89 -57 -120 -100 -150 -123 -160 -123 -13
0 125 133 197 190 46 37 124 85 142 90 1 0 5 -4 8 -10z m-595 -4 c0 -2 -7 -9
-15 -16 -12 -10 -15 -10 -15 4 0 9 7 16 15 16 8 0 15 -2 15 -4z m330 -16 c0
-22 -133 -105 -151 -95 -5 4 23 28 63 55 77 51 88 56 88 40z m71 -18 c-27 -39
-51 -58 -51 -42 0 12 53 70 65 70 3 0 -3 -13 -14 -28z m-456 -1 c-8 -14 -63
-40 -69 -33 -8 7 44 42 62 42 7 0 11 -4 7 -9z m45 -11 c0 -5 -2 -10 -4 -10 -3
0 -8 5 -11 10 -3 6 -1 10 4 10 6 0 11 -4 11 -10z m-212 -17 c-2 -9 -8 -18 -15
-20 -7 -3 -9 3 -6 16 6 25 26 28 21 4z m211 -10 c2 -1 -11 -19 -28 -39 -18
-20 -31 -43 -29 -52 4 -23 48 -27 91 -9 19 8 40 11 46 7 19 -11 3 -101 -21
-124 -19 -18 -20 -17 -56 11 -70 56 -112 66 -112 27 0 -12 -6 -15 -22 -10 -13
3 -30 6 -38 6 -8 1 1 10 20 21 l35 19 -35 -2 c-35 -3 -35 -3 -32 36 4 47 30
75 97 109 39 19 53 23 65 14 8 -6 17 -12 19 -14z m-184 -33 c-3 -5 -10 -10
-16 -10 -5 0 -9 5 -9 10 0 6 7 10 16 10 8 0 12 -4 9 -10z m222 -20 l23 -28
-32 -11 c-40 -14 -78 -14 -78 0 0 17 40 69 53 68 7 0 22 -13 34 -29z m263 6
c-14 -14 -38 -28 -55 -31 -27 -6 -26 -4 15 24 55 36 73 40 40 7z m-540 -41 c0
-3 -10 -25 -22 -48 -20 -37 -23 -39 -26 -19 -4 24 22 72 38 72 6 0 10 -2 10
-5z m466 -72 c-30 -28 -57 -61 -61 -72 -8 -26 -43 -28 -61 -3 -14 18 -17 53
-8 98 l6 29 88 0 89 0 -53 -52z m234 38 c0 -5 -46 -46 -102 -91 -57 -44 -108
-85 -115 -90 -7 -6 -15 -10 -18 -10 -3 0 -24 -13 -47 -30 -22 -16 -38 -30 -34
-30 15 0 90 47 125 77 20 18 39 33 43 33 4 0 30 20 58 45 28 25 53 45 56 45 7
0 -10 -27 -46 -75 -16 -22 -37 -51 -47 -65 -9 -14 -29 -34 -43 -45 -31 -25
-127 -121 -158 -160 -19 -23 -25 -26 -33 -14 -13 20 -11 29 6 29 23 0 38 49
31 100 -12 98 -14 92 21 96 18 2 53 20 79 39 26 20 61 42 78 49 17 7 56 34 86
59 61 51 60 51 60 38z m-585 -111 c39 -6 77 -18 85 -27 13 -14 13 -15 -5 -9
-37 10 -203 26 -218 20 -8 -3 -18 -1 -22 5 -4 7 4 11 19 11 14 0 28 5 31 10 4
6 14 9 23 6 10 -3 49 -10 87 -16z m-175 -64 c0 -12 -5 -7 -19 24 -11 24 -11
24 3 6 9 -11 16 -24 16 -30z m435 24 c-3 -5 -10 -10 -16 -10 -5 0 -9 5 -9 10
0 6 7 10 16 10 8 0 12 -4 9 -10z m45 5 c0 -2 -10 -10 -22 -16 -21 -11 -22 -11
-9 4 13 16 31 23 31 12z m-240 -25 c39 -20 60 -40 41 -40 -17 0 -101 43 -101
52 0 13 18 9 60 -12z m45 0 c3 -6 -1 -7 -9 -4 -18 7 -21 14 -7 14 6 0 13 -4
16 -10z m58 -23 c8 8 20 -43 14 -59 -3 -7 -6 0 -6 15 -1 16 -5 26 -11 22 -6
-3 -17 0 -25 9 -21 20 -19 29 4 17 10 -6 21 -8 24 -4z m443 -87 c8 0 26 8 41
17 21 14 25 14 20 3 -3 -8 -12 -34 -19 -57 -7 -24 -15 -43 -20 -43 -4 0 -22
16 -41 35 -19 19 -41 35 -51 35 -23 0 -20 10 11 42 l28 29 8 -30 c4 -18 14
-31 23 -31z m-2220 -7 c-7 -7 -26 7 -26 19 0 6 6 6 15 -2 9 -7 13 -15 11 -17z
m1796 -26 c3 15 5 15 10 -5 3 -12 2 -20 -3 -16 -5 3 -9 0 -9 -7 0 -7 -7 -4
-15 7 -8 10 -14 24 -14 29 0 6 6 2 13 -8 14 -18 14 -18 18 0z m-1679 -27 c-3
-12 -8 -19 -11 -16 -5 6 5 36 12 36 2 0 2 -9 -1 -20z m1739 -312 c-6 -6 -15
-8 -19 -4 -4 4 -1 11 7 16 19 12 27 3 12 -12z"/>
<path d="M4150 5491 c0 -19 145 -141 161 -135 21 6 95 -75 101 -111 7 -35 -5
-31 -24 8 -18 38 -68 100 -75 93 -3 -3 7 -20 22 -38 32 -38 75 -124 75 -151 0
-10 -18 17 -40 60 -22 43 -45 82 -51 88 -12 12 13 -49 56 -135 71 -143 70
-133 45 -365 -12 -114 -19 -209 -16 -212 9 -9 14 16 25 147 12 126 28 215 30
159 1 -14 7 -33 14 -44 24 -31 29 0 12 70 -8 37 -12 72 -9 77 4 6 2 8 -3 5 -7
-4 -12 24 -16 81 -7 126 -28 182 -90 246 -29 30 -66 61 -84 70 -17 9 -52 34
-78 56 -49 42 -55 46 -55 31z"/>
<path d="M2008 4770 c-12 -38 -10 -66 3 -53 6 6 9 26 7 44 -3 32 -3 33 -10 9z"/>
<path d="M4466 4584 c-3 -26 -6 -70 -6 -98 0 -59 -12 -88 -26 -63 -22 38 -53
-31 -54 -115 0 -27 -4 -36 -13 -32 -35 13 -66 -94 -77 -266 -4 -80 -10 -117
-15 -102 -9 26 -29 30 -21 5 14 -53 15 -85 1 -148 -8 -38 -14 -86 -14 -105 1
-20 7 1 15 49 8 47 16 86 18 89 3 2 11 -9 19 -25 16 -31 13 -148 -4 -159 -5
-3 -9 -24 -9 -47 0 -23 -7 -62 -16 -87 -13 -37 -14 -52 -4 -85 7 -22 14 -44
15 -50 2 -5 4 6 4 25 1 46 10 33 56 -83 21 -53 40 -95 43 -93 2 3 -16 56 -42
118 -46 114 -46 114 -37 191 5 43 11 80 13 82 6 7 89 -77 116 -118 15 -22 32
-65 38 -96 l11 -56 2 46 c3 101 -48 194 -125 232 -47 22 -51 37 -35 112 l6 30
14 -33 c8 -18 16 -31 18 -28 2 2 -3 18 -11 35 -19 35 -21 123 -5 187 12 47 29
44 29 -3 0 -13 4 -23 8 -23 5 0 7 34 4 76 -3 53 -2 75 6 70 6 -3 13 2 16 11 3
10 3 -6 0 -34 -2 -29 -1 -53 4 -53 14 0 22 54 20 139 -1 70 -2 73 -9 31 -5
-27 -6 5 -3 84 2 71 9 136 15 145 7 11 9 -13 7 -84 -1 -55 -1 -181 2 -280 3
-156 4 -168 9 -88 7 106 21 136 21 43 0 -119 7 -55 12 105 3 88 2 131 -2 95
-4 -36 -6 50 -4 190 1 140 5 267 9 283 4 16 3 27 -2 27 -6 0 -13 -21 -17 -46z
m-37 -186 c0 -13 -9 -45 -19 -73 -18 -50 -18 -50 -19 -15 -1 44 17 110 29 110
6 0 10 -10 9 -22z m28 -30 c-3 -8 -6 -5 -6 6 -1 11 2 17 5 13 3 -3 4 -12 1
-19z m-97 -122 c0 -2 3 -13 6 -23 4 -13 3 -14 -4 -5 -6 9 -11 -8 -15 -55 -3
-37 -14 -99 -24 -138 -16 -62 -18 -66 -21 -36 -7 70 29 261 48 261 6 0 10 -2
10 -4z m37 -153 c-3 -10 -5 -4 -5 12 0 17 2 24 5 18 2 -7 2 -21 0 -30z m-32
-40 c-4 -31 -11 -66 -16 -77 -10 -22 -9 -5 6 92 10 63 18 51 10 -15z m75 -557
c0 -6 -18 8 -40 29 -22 21 -40 44 -40 49 0 6 18 -8 40 -29 22 -21 40 -44 40
-49z m-153 -18 c-3 -7 -5 -2 -5 12 0 14 2 19 5 13 2 -7 2 -19 0 -25z m-7 -50
c0 -18 -2 -20 -9 -8 -6 8 -7 18 -5 22 9 14 14 9 14 -14z"/>
<path d="M4494 4404 l-1 -179 9 124 c5 69 5 149 1 179 -6 40 -8 4 -9 -124z"/>
<path d="M3080 4529 c-6 -10 -17 -16 -24 -13 -9 3 -17 -3 -21 -15 -3 -12 -9
-21 -13 -22 -42 -5 -54 -5 -58 3 -13 20 -48 4 -97 -43 -28 -28 -62 -53 -74
-55 -60 -11 -113 -50 -113 -83 0 -9 -15 -27 -33 -40 -29 -21 -25 -22 20 -4 12
5 15 2 10 -10 -9 -24 10 -21 25 3 7 11 21 20 30 20 9 0 34 11 54 25 21 14 44
23 51 21 7 -3 15 -1 19 5 4 7 10 7 18 0 9 -7 16 -5 26 9 8 11 23 20 34 20 11
0 28 8 39 18 19 16 19 16 12 -7 l-7 -24 28 20 c16 10 49 25 74 33 25 7 56 20
68 27 28 17 40 10 22 -12 -10 -12 -10 -15 2 -15 8 0 19 5 26 12 8 8 12 8 12 1
0 -6 -7 -16 -15 -23 -23 -19 -18 -29 8 -17 31 14 48 52 37 82 -7 19 -3 29 28
60 l37 37 -29 -8 c-16 -4 -49 -20 -72 -36 -23 -15 -49 -28 -59 -28 -9 0 -25
-5 -36 -10 -26 -14 -26 9 1 43 25 31 25 33 0 40 -13 3 -24 -1 -30 -14z m150
-89 c0 -5 -4 -10 -10 -10 -5 0 -10 5 -10 10 0 6 5 10 10 10 6 0 10 -4 10 -10z"/>
<path d="M2905 4274 c-11 -8 -46 -29 -77 -46 -32 -17 -58 -35 -58 -40 0 -8
123 54 145 74 14 13 139 10 153 -4 19 -19 14 -30 -8 -18 -12 6 -33 9 -48 7
l-27 -4 26 -2 c14 0 34 -10 44 -21 10 -11 24 -20 32 -20 8 0 11 -4 8 -10 -3
-5 -13 -10 -21 -10 -9 0 -12 5 -8 11 4 7 1 10 -6 7 -8 -2 -16 -10 -18 -17 -5
-14 42 -12 83 3 15 6 17 6 5 -3 -20 -14 -3 -28 18 -15 26 17 27 44 3 51 -12 3
-21 10 -21 15 0 5 -4 7 -9 3 -5 -3 -12 -1 -16 5 -3 5 -1 10 4 10 6 0 11 6 11
14 0 27 -181 36 -215 10z"/>
<path d="M2914 4227 c-22 -7 -53 -22 -68 -34 -27 -22 -27 -23 -7 -23 12 0 20
-4 16 -9 -10 -17 12 -21 70 -15 67 8 86 30 60 70 -17 27 -15 26 -71 11z"/>
<path d="M2113 4213 c-3 -10 -18 -28 -32 -40 l-26 -22 30 -1 30 -2 -38 -18
-39 -18 23 -16 c13 -9 39 -15 59 -15 33 2 33 2 5 6 -43 6 -57 12 -51 22 4 5
25 3 51 -4 38 -12 50 -12 80 1 24 10 35 21 35 34 0 17 3 19 19 11 45 -24 100
-91 106 -128 11 -66 13 -69 13 -23 1 25 -5 56 -13 70 -18 32 -18 40 0 40 8 0
15 5 15 10 0 6 -10 10 -22 10 -42 0 -63 11 -83 41 -11 16 -29 29 -40 29 -17 0
-17 -2 -5 -10 12 -8 9 -10 -12 -10 -20 0 -26 4 -22 15 4 9 19 15 40 15 19 0
34 5 34 10 0 6 -32 10 -75 10 -63 0 -77 -3 -82 -17z"/>
<path d="M4067 4188 c-20 -31 -27 -53 -26 -88 2 -44 2 -44 8 -10 7 34 8 33 15
-21 7 -51 5 -60 -19 -99 -35 -55 -23 -65 22 -16 l35 38 -6 78 c-6 64 -4 80 9
94 9 9 23 16 31 16 8 0 14 5 14 10 0 6 -9 10 -20 10 -11 0 -20 7 -20 15 0 26
-14 17 -43 -27z"/>
<path d="M1958 4009 c-25 -28 -54 -116 -46 -140 2 -7 12 10 21 37 10 27 27 66
38 87 26 48 22 53 -13 16z"/>
<path d="M2341 3844 c-23 -42 -38 -81 -35 -86 4 -6 3 -8 -3 -5 -6 4 -15 -5
-22 -19 -12 -27 -7 -64 10 -64 5 0 9 -15 9 -34 0 -18 7 -50 15 -70 15 -34 17
-36 63 -35 26 0 56 4 67 9 l20 9 -20 0 c-11 1 -33 12 -50 25 -29 23 -30 27
-30 103 0 101 10 216 19 231 4 7 5 12 2 12 -2 0 -23 -34 -45 -76z"/>
<path d="M1956 3894 c-3 -9 -6 -25 -6 -37 1 -17 4 -15 15 12 18 39 18 41 6 41
-5 0 -12 -7 -15 -16z"/>
<path d="M1945 3718 c2 -65 6 -121 8 -125 2 -5 15 -43 27 -86 13 -43 27 -80
31 -83 5 -2 -1 21 -11 52 -11 32 -18 59 -16 62 6 5 33 -56 52 -118 17 -56 17
-62 -1 -30 -24 42 -17 13 10 -40 14 -27 37 -63 52 -79 30 -32 70 -81 85 -103
16 -24 -4 66 -24 110 -11 24 -36 67 -55 95 -39 57 -67 89 -39 44 10 -16 15
-31 13 -34 -8 -8 -35 50 -30 64 3 7 -5 26 -16 42 -12 16 -24 43 -27 60 -4 17
-10 28 -15 26 -15 -10 -23 20 -35 140 l-12 120 3 -117z m160 -405 c0 -18 -1
-33 -2 -33 -4 0 -43 78 -43 85 0 3 5 3 10 0 6 -3 10 0 10 7 1 29 25 -29 25
-59z m44 -58 c0 -5 -6 -1 -14 9 -8 11 -15 27 -15 35 1 17 29 -26 29 -44z"/>
<path d="M3734 3765 c-4 -8 -16 -15 -28 -15 -15 0 -17 -3 -7 -9 7 -5 15 -32
17 -63 4 -45 1 -60 -17 -82 -30 -39 -41 -21 -28 48 6 32 8 60 6 63 -3 2 -10
-27 -16 -64 -23 -136 -12 -120 -123 -181 -32 -18 -58 -27 -60 -21 -5 16 -52
-12 -116 -70 -99 -91 -185 -162 -189 -157 -3 2 3 16 13 31 18 27 26 65 14 65
-3 0 -23 -18 -44 -39 -37 -38 -40 -39 -63 -24 -17 12 -38 14 -78 10 -50 -5
-55 -4 -55 14 0 18 -4 19 -37 12 -55 -12 -180 -6 -235 11 -27 8 -48 10 -48 5
0 -11 71 -30 145 -38 l60 -7 -55 -12 c-48 -10 -32 -11 116 -7 185 4 215 -2
175 -35 l-23 -20 26 0 c15 0 30 8 36 21 7 11 14 18 17 16 2 -3 -3 -17 -13 -31
-9 -15 -14 -29 -11 -33 9 -8 44 16 110 77 32 29 60 50 63 47 7 -7 -108 -125
-151 -154 -55 -39 -17 -35 66 6 46 22 85 38 88 35 3 -3 -24 -34 -61 -68 l-67
-62 31 -19 31 -18 -69 -35 c-46 -23 -64 -37 -54 -41 16 -7 18 -48 5 -118 -8
-47 0 -57 15 -18 6 15 15 23 23 19 9 -3 22 17 41 66 23 58 35 76 68 96 55 35
68 25 26 -22 -38 -43 -62 -100 -29 -70 19 17 74 18 68 1 -2 -5 -11 -9 -19 -9
-10 1 -13 -6 -10 -21 2 -15 -4 -31 -17 -44 -26 -26 -39 -27 -37 -3 2 27 -18
20 -63 -20 -22 -21 -45 -38 -52 -38 -6 0 -27 -14 -46 -31 -19 -16 -37 -28 -39
-26 -2 2 11 37 29 78 38 83 54 129 40 114 -5 -5 -22 -40 -37 -77 -16 -37 -32
-65 -37 -62 -9 5 -13 -14 -10 -46 1 -8 -11 -21 -26 -27 -40 -19 -56 -17 -50 7
6 24 -8 25 -83 6 -30 -8 -56 -13 -58 -11 -2 2 1 13 8 24 10 19 8 21 -15 21
-14 0 -44 -12 -66 -26 -46 -29 -59 -26 -35 8 25 35 21 68 -8 68 -44 0 -79 -20
-125 -71 l-46 -50 -38 26 -38 26 7 -25 c7 -27 -4 -34 -24 -14 -9 9 -13 7 -18
-5 -3 -9 -10 -17 -14 -17 -10 0 -44 99 -37 106 4 4 15 -21 31 -70 5 -14 10
-16 18 -8 8 8 7 17 -4 34 -8 13 -22 58 -32 101 -10 42 -22 77 -27 77 -4 0 -5
-37 -2 -82 5 -86 33 -186 55 -200 9 -5 7 -8 -7 -8 -11 0 -30 -3 -43 -6 -18 -5
-21 -3 -16 10 13 34 -30 15 -80 -37 -117 -121 -212 -246 -243 -322 -5 -12 32
28 65 71 12 16 6 2 -14 -31 -99 -161 -196 -381 -259 -583 -9 -29 -32 -87 -51
-128 -83 -178 -166 -403 -214 -583 -15 -58 -60 -198 -99 -311 -78 -225 -84
-253 -49 -248 18 2 31 23 63 96 23 52 57 140 76 198 18 57 37 104 42 104 10 0
9 -88 -3 -124 -5 -17 -34 -115 -65 -219 -30 -103 -64 -205 -75 -227 -11 -22
-16 -40 -10 -40 15 0 44 71 101 245 27 83 54 159 58 170 5 11 13 36 18 55 l9
35 22 -42 c23 -43 99 -143 137 -178 12 -11 49 -44 83 -74 63 -55 78 -80 25
-43 -15 11 -39 23 -53 26 -14 4 -5 -4 21 -18 25 -13 51 -32 58 -40 18 -21 31
-20 31 3 0 10 -46 61 -110 120 -103 96 -200 223 -200 261 0 8 16 -12 35 -44
82 -137 168 -213 342 -302 133 -69 209 -97 250 -92 23 3 28 8 29 35 1 29 -4
36 -45 60 -134 78 -270 187 -460 370 l-115 109 24 82 c13 44 27 79 32 76 4 -3
8 8 8 24 0 16 13 75 29 133 43 154 46 175 25 187 -16 9 -15 16 13 98 17 49 43
121 57 159 15 39 30 97 35 131 21 146 230 544 388 739 42 51 56 62 101 74 49
13 52 13 75 -9 14 -13 31 -25 38 -26 8 -1 41 -10 74 -19 33 -10 83 -21 112
-24 l52 -6 -110 -160 c-71 -103 -135 -212 -181 -307 -69 -142 -88 -166 -88
-111 0 49 -22 153 -32 153 -8 0 -8 -27 -3 -82 5 -46 9 -112 10 -148 0 -36 4
-71 9 -78 4 -6 5 -16 2 -21 -11 -16 -8 -357 3 -456 46 -401 60 -516 82 -645
10 -63 30 -157 44 -208 27 -100 101 -298 115 -307 4 -3 -6 28 -22 68 -42 101
-53 138 -84 257 -28 111 -33 139 -64 369 -25 176 -24 222 1 116 46 -197 175
-573 230 -671 17 -30 43 -96 58 -147 22 -78 29 -92 49 -95 12 -2 22 -1 22 1 0
3 -11 33 -24 68 -40 107 -143 530 -215 884 -20 100 -47 250 -97 545 -14 85
-34 175 -45 199 -10 24 -19 60 -19 80 0 84 205 488 223 439 2 -7 16 13 31 46
14 32 50 97 79 143 49 79 55 84 102 98 28 7 68 16 90 20 22 3 54 11 71 17 27
10 34 8 53 -11 17 -17 30 -21 49 -16 32 7 72 49 72 75 0 13 5 17 14 14 8 -3
44 17 81 46 37 28 90 62 118 76 80 41 209 127 247 166 32 33 88 118 76 118 -2
0 -12 -8 -22 -17 -13 -13 -19 -14 -22 -5 -5 15 -31 16 -52 2 -11 -8 -7 -9 15
-4 28 6 28 5 -15 -28 -56 -43 -159 -102 -166 -95 -3 3 23 28 58 56 115 93 130
106 162 136 18 17 20 19 5 7 -23 -20 -28 -21 -35 -9 -5 8 -18 17 -29 19 -17 3
-13 8 21 28 22 14 39 31 37 38 -3 6 43 59 101 117 58 58 106 108 106 110 0 3
-7 5 -17 5 -9 0 -13 -3 -10 -7 12 -11 -35 -53 -60 -53 -13 0 -51 -11 -86 -25
l-62 -25 30 25 c17 14 56 35 88 47 32 11 60 25 63 29 3 5 -7 4 -21 -1 -39 -15
-41 -12 -9 12 35 27 47 46 49 76 1 20 -3 22 -26 17 -24 -5 -27 -4 -22 14 3 10
36 53 74 94 38 41 69 80 69 86 0 18 -29 12 -68 -14 -64 -43 -71 -26 -17 39 53
65 41 69 -15 6 l-50 -55 0 52 c0 57 8 86 21 77 5 -3 9 0 9 5 0 16 -20 13 -26
-4z m118 -129 c-35 -45 -81 -78 -104 -74 -20 3 -14 10 41 51 70 52 93 60 63
23z m-273 -195 c7 -5 14 -21 14 -36 0 -21 -18 -45 -71 -99 -39 -39 -83 -86
-98 -104 -24 -29 -71 -62 -90 -62 -4 0 16 24 44 53 76 78 112 123 112 140 0 8
10 21 23 30 33 22 14 32 -22 11 -64 -38 -41 17 24 57 34 21 44 23 64 10z m141
-21 c-33 -26 -52 -25 -21 0 13 11 28 20 35 20 6 0 0 -9 -14 -20z m-70 -180
c-8 -5 -17 -7 -19 -4 -3 3 1 9 9 14 8 5 17 7 19 4 3 -3 -1 -9 -9 -14z m-380
-30 c0 -15 -46 -60 -62 -60 -6 0 3 16 22 35 37 38 40 40 40 25z m252 -77 c-11
-16 -35 -36 -54 -46 -29 -16 -28 -14 15 27 56 53 67 58 39 19z m78 23 c0 -3
-4 -8 -10 -11 -5 -3 -10 -1 -10 4 0 6 5 11 10 11 6 0 10 -2 10 -4z m-256 -55
c-21 -22 -98 -56 -88 -40 9 14 98 69 103 63 3 -2 -4 -13 -15 -23z m-28 -76
c-11 -8 -25 -15 -30 -15 -6 0 -2 7 8 15 11 8 25 15 30 15 6 0 2 -7 -8 -15z
m124 -65 c0 -5 -11 -12 -25 -16 -14 -3 -25 -10 -25 -14 0 -13 -49 -40 -55 -31
-3 5 19 23 47 40 61 35 58 34 58 21z m-281 -57 c-27 -63 -30 -65 -25 -14 3 39
17 60 38 61 4 0 -2 -21 -13 -47z m435 32 c-7 -16 -24 -21 -24 -6 0 8 7 13 27
20 1 1 0 -6 -3 -14z m-24 -30 c0 -2 -20 -18 -45 -35 -25 -17 -45 -29 -45 -26
0 4 80 64 88 66 1 0 2 -2 2 -5z m-93 -35 c-14 -11 -29 -20 -33 -20 -4 0 1 9
11 20 10 11 25 20 33 20 9 0 6 -7 -11 -20z m-166 -63 c-16 -16 -26 0 -10 19 9
11 15 12 17 4 2 -6 -1 -17 -7 -23z m92 -18 c-58 -39 -80 -48 -68 -29 3 6 0 10
-7 10 -7 0 -2 7 10 16 12 8 26 13 31 10 4 -3 23 6 41 19 18 13 37 22 42 19 6
-4 -16 -24 -49 -45z m-703 -53 c0 -26 -12 -45 -25 -40 -7 3 -30 -11 -50 -31
-21 -19 -35 -29 -32 -21 3 8 9 30 12 50 5 26 14 38 34 45 38 14 61 13 61 -3z
m100 -42 c0 -13 -22 -44 -31 -44 -6 0 -7 5 -4 10 12 19 -18 10 -51 -15 -37
-28 -67 -33 -57 -10 3 9 10 14 17 12 6 -2 31 9 55 25 42 26 71 35 71 22z
m-219 -37 c-7 -19 -15 -25 -26 -21 -14 6 -13 10 6 30 27 29 33 26 20 -9z m63
-21 c-3 -9 -13 -16 -22 -16 -13 0 -12 3 3 20 20 23 29 21 19 -4z m92 -12 c-4
-9 -1 -23 5 -30 9 -11 8 -14 -5 -14 -9 0 -19 7 -22 15 -8 19 2 45 17 45 6 0 8
-7 5 -16z m-256 -5 c0 -6 -7 -8 -16 -5 -11 4 -15 2 -11 -6 2 -7 -1 -18 -8 -25
-10 -9 -18 -6 -35 12 -20 21 -20 23 -4 27 43 8 74 6 74 -3z m53 -31 c35 -19
49 -35 34 -42 -6 -3 2 -4 18 -1 30 5 65 -8 54 -20 -12 -11 -90 7 -85 20 2 6
-11 17 -30 24 -19 7 -34 17 -34 22 0 12 17 11 43 -3z m432 3 c-9 -9 -55 -9
-50 0 3 5 17 8 30 7 13 -1 22 -4 20 -7z m-445 -44 c0 -16 -43 -2 -45 14 -2 13
1 14 21 5 13 -6 24 -15 24 -19z m425 13 c-3 -5 -16 -10 -28 -10 -18 0 -19 2
-7 10 20 13 43 13 35 0z m-70 -20 c-28 -12 -47 -12 -40 0 3 6 18 10 33 9 24 0
25 -1 7 -9z m-293 -292 c-7 -7 -12 -8 -12 -2 0 14 12 26 19 19 2 -3 -1 -11 -7
-17z m-217 -933 c21 -181 59 -400 91 -532 35 -145 25 -151 -15 -10 -70 250
-108 481 -115 709 l-5 163 13 -95 c8 -52 21 -158 31 -235z m-705 -286 c-25
-81 -34 -99 -42 -85 -7 12 0 42 28 113 21 52 40 91 42 85 2 -6 -11 -57 -28
-113z m707 -21 c-3 -8 -6 -5 -6 6 -1 11 2 17 5 13 3 -3 4 -12 1 -19z m-767
-161 c0 -18 -2 -19 -10 -7 -13 20 -13 43 0 35 6 -3 10 -16 10 -28z m65 -84
c14 -21 48 -72 75 -113 27 -41 81 -109 120 -150 38 -41 70 -76 70 -78 0 -1
-19 10 -42 24 -92 57 -187 159 -238 255 -47 90 -36 138 15 62z m59 -5 c59 -63
184 -176 262 -238 93 -74 77 -73 -33 2 -110 74 -302 268 -267 268 4 0 21 -15
38 -32z m225 -285 c18 -16 62 -46 97 -64 66 -35 78 -49 44 -49 -42 0 -107 45
-196 134 -110 109 -148 171 -48 76 38 -36 84 -80 103 -97z m201 -73 c8 -5 10
-10 4 -10 -7 0 -22 9 -35 21 -19 16 -20 18 -4 10 11 -6 27 -15 35 -21z m53
-67 c49 -26 50 -28 24 -31 -31 -4 -127 25 -127 38 0 7 17 15 43 19 4 0 31 -11
60 -26z"/>
<path d="M3350 2780 c-9 -6 -10 -10 -3 -10 6 0 15 5 18 10 8 12 4 12 -15 0z"/>
<path d="M4160 3743 c-16 -49 -25 -58 -58 -58 -18 0 -30 -7 -37 -22 -5 -13
-18 -23 -27 -23 -25 0 -37 -29 -44 -107 -5 -50 -2 -77 9 -105 16 -38 28 -44
92 -50 52 -5 45 -37 -33 -133 -81 -101 -152 -218 -200 -329 -34 -80 -72 -204
-72 -236 0 -9 -8 -24 -18 -33 -10 -9 -35 -51 -56 -94 l-38 -78 -196 -64 c-180
-58 -203 -64 -281 -63 -96 1 -73 -14 -193 124 -31 35 -55 55 -64 51 -11 -4
-10 -10 5 -32 10 -14 26 -51 34 -81 9 -31 33 -77 53 -103 39 -50 40 -62 6 -50
-13 5 -39 42 -67 96 -46 89 -58 126 -29 91 15 -17 15 -17 0 6 -9 14 -21 35
-26 48 -13 31 -22 28 -15 -6 5 -23 4 -24 -5 -9 -15 23 -30 12 -30 -22 0 -26
61 -139 82 -152 6 -4 8 -11 4 -17 -5 -9 84 -52 109 -52 7 0 57 -45 111 -101
98 -99 137 -129 170 -129 9 0 66 48 125 107 112 110 149 134 77 50 -71 -83
-34 -62 47 28 43 47 82 85 87 85 5 0 -1 -18 -12 -39 -11 -22 -16 -42 -12 -45
5 -3 54 44 110 103 129 138 163 179 225 271 27 41 72 106 100 143 27 37 47 70
45 72 -5 6 -22 -17 -123 -165 -85 -125 -159 -214 -273 -330 -82 -83 -79 -72
21 80 102 153 355 439 376 425 5 -2 17 8 26 23 10 15 42 50 71 77 39 36 54 58
53 75 -1 21 -2 22 -6 5 -7 -29 -43 -64 -59 -58 -8 3 -60 -36 -127 -95 -78 -69
-113 -94 -113 -81 0 9 4 17 8 16 4 -1 45 48 91 110 61 80 82 114 74 122 -15
15 -40 14 -31 -1 4 -6 3 -8 -3 -5 -5 3 -38 -21 -73 -54 -35 -32 -65 -57 -67
-55 -11 11 57 162 104 229 46 65 53 80 42 93 -8 10 -9 18 -3 22 35 24 52 39
62 57 11 20 12 20 18 -2 10 -36 24 -27 23 15 0 28 -2 32 -8 17 -7 -17 -9 -16
-14 10 -4 17 -9 73 -11 125 l-5 95 12 -96 c9 -73 15 -94 23 -85 17 18 29 60
15 52 -7 -5 -11 7 -11 36 0 33 3 40 11 28 8 -12 9 -10 5 10 -3 14 -7 52 -7 85
-2 42 -4 50 -7 25 -4 -29 -6 -32 -12 -15 -4 11 -5 -18 -3 -65 3 -47 3 -83 0
-80 -3 3 -8 48 -11 100 -5 86 -11 119 -31 186 -4 12 -2 31 4 43 7 12 8 21 2
21 -5 0 -15 -17 -21 -37z m18 -307 c-2 -45 -8 -81 -14 -83 -12 -4 -17 192 -7
242 6 27 8 24 15 -25 5 -30 7 -91 6 -134z m-38 52 c0 -57 -3 -78 -10 -68 -16
25 -11 150 6 150 2 0 4 -37 4 -82z m-68 -30 c2 -23 0 -38 -7 -38 -6 0 -9 18
-6 48 4 51 7 48 13 -10z m108 -159 c0 -11 -4 -18 -10 -14 -5 3 -7 12 -3 20 7
21 13 19 13 -6z m-88 -86 c-20 -38 -64 -109 -99 -159 -35 -51 -88 -143 -118
-205 -31 -63 -53 -100 -49 -84 12 56 94 237 145 321 52 87 134 194 148 194 5
0 -7 -30 -27 -67z m58 42 c-7 -9 -15 -13 -18 -10 -3 2 1 11 8 20 7 9 15 13 18
10 3 -2 -1 -11 -8 -20z m-69 -132 c-12 -20 -14 -14 -5 12 4 9 9 14 11 11 3 -2
0 -13 -6 -23z m-71 -103 c-6 -11 -13 -20 -16 -20 -2 0 0 9 6 20 6 11 13 20 16
20 2 0 0 -9 -6 -20z m80 -105 c-24 -24 -46 -43 -48 -41 -7 8 18 44 44 65 47
37 49 22 4 -24z m-120 -14 c-10 -37 -40 -100 -50 -106 -13 -8 9 63 32 100 24
43 29 44 18 6z m-47 -16 c-9 -19 -18 -33 -21 -31 -4 5 26 66 33 66 3 0 -3 -16
-12 -35z m83 -33 c-16 -32 -44 -58 -52 -49 -5 5 53 77 62 77 3 0 -2 -13 -10
-28z m62 -99 c-122 -122 -190 -201 -266 -306 -19 -26 -36 -46 -39 -43 -13 13
78 147 159 234 57 61 255 242 265 242 4 0 -49 -57 -119 -127z m-178 7 c-6 -12
-14 -19 -17 -17 -2 3 1 15 7 27 6 12 14 19 17 17 2 -3 -1 -15 -7 -27z m53 -5
c-3 -9 -8 -14 -10 -11 -3 3 -2 9 2 15 9 16 15 13 8 -4z m-5 -70 c-18 -24 -37
-44 -42 -45 -5 0 -1 10 10 23 66 79 82 90 32 22z m-62 6 c-4 -5 -1 -11 6 -13
8 -3 2 -19 -18 -46 -16 -23 -34 -40 -41 -37 -6 2 -14 -4 -16 -13 -4 -14 -5
-13 -6 3 0 11 4 27 9 35 9 13 10 13 10 0 1 -12 33 34 35 50 1 9 16 30 21 30 3
0 3 -4 0 -9z m-84 -153 c-7 -7 -12 -8 -12 -2 0 14 12 26 19 19 2 -3 -1 -11 -7
-17z m-870 -123 c3 3 8 -1 12 -10 3 -9 2 -13 -4 -10 -6 3 -10 0 -10 -7 0 -7
-9 7 -20 31 -11 24 -20 48 -19 55 0 6 9 -6 18 -27 10 -20 20 -35 23 -32z m792
-92 c-9 -18 -23 -33 -31 -33 -16 0 -17 -5 8 65 28 81 33 87 37 40 2 -25 -3
-52 -14 -72z m-679 56 c4 -11 10 -17 15 -14 4 3 21 -12 36 -33 16 -20 39 -47
53 -59 13 -13 19 -23 12 -23 -6 0 -32 21 -56 46 -25 25 -45 42 -45 38 0 -13
-29 31 -40 61 -9 24 -9 26 4 16 9 -7 18 -21 21 -32z m305 -54 c58 0 131 3 163
8 31 4 57 3 57 -2 0 -4 -20 -11 -44 -14 -95 -13 -128 -52 -43 -52 26 0 46 -4
44 -10 -1 -6 -24 -9 -52 -7 -27 2 -93 -6 -145 -17 -110 -24 -100 -23 -100 -12
0 6 15 12 33 14 29 3 29 4 -8 5 -35 2 -46 8 -78 46 -20 25 -37 47 -37 50 0 3
24 2 53 -2 28 -4 99 -7 157 -7z m210 -24 c-8 -5 -37 -12 -65 -15 l-50 -5 50
13 c28 8 57 14 65 15 13 0 13 -1 0 -8z m-30 -77 c0 -3 -32 -39 -72 -80 -39
-41 -68 -74 -63 -74 4 0 2 -7 -5 -15 -23 -28 -80 -13 -80 22 0 7 -11 31 -24
52 -14 21 -22 42 -19 45 4 3 29 7 57 8 36 1 42 2 19 5 -38 5 -44 20 -10 27 12
3 31 7 42 9 32 7 155 8 155 1z m-250 -24 c-20 -13 -33 -13 -25 0 3 6 14 10 23
10 15 0 15 -2 2 -10z"/>
<path d="M1877 3707 c-4 -10 -7 -40 -7 -65 0 -65 39 -280 57 -317 19 -38 73
-95 90 -95 7 0 22 -15 33 -32 11 -18 20 -28 20 -22 0 6 -27 52 -59 103 -87
136 -111 201 -119 335 -4 65 -10 103 -15 93z m50 -349 c-3 -8 -6 -5 -6 6 -1
11 2 17 5 13 3 -3 4 -12 1 -19z m83 -109 c0 -6 -4 -7 -10 -4 -5 3 -10 11 -10
16 0 6 5 7 10 4 6 -3 10 -11 10 -16z"/>
<path d="M1972 3680 c0 -14 2 -19 5 -12 2 6 2 18 0 25 -3 6 -5 1 -5 -13z"/>
<path d="M2246 3664 c-27 -27 -20 -76 15 -107 18 -15 34 -26 36 -24 7 8 -10
87 -18 87 -5 0 -7 11 -3 24 7 30 -9 41 -30 20z m14 -41 c0 -19 -3 -24 -10 -17
-6 6 -8 18 -4 27 9 24 14 21 14 -10z"/>
<path d="M2804 3648 c3 -13 6 -32 6 -43 1 -19 2 -19 10 2 10 24 2 63 -12 63
-6 0 -8 -10 -4 -22z"/>
<path d="M1982 3625 c0 -16 2 -22 5 -12 2 9 2 23 0 30 -3 6 -5 -1 -5 -18z"/>
<path d="M2612 3596 c-30 -30 -43 -54 -22 -41 6 3 10 1 10 -5 0 -5 18 1 41 15
34 22 43 24 57 13 13 -11 15 -11 9 4 -3 9 -1 19 6 21 18 6 6 14 -33 20 -30 4
-40 0 -68 -27z"/>
<path d="M4400 3478 c0 -2 9 -28 20 -58 14 -38 18 -44 14 -20 -8 41 -21 80
-29 80 -3 0 -5 -1 -5 -2z"/>
<path d="M4364 3359 c37 -34 60 -64 67 -89 10 -33 16 -38 39 -38 15 1 45 -11
66 -27 32 -23 30 -19 -13 21 -34 33 -57 64 -66 93 -8 24 -16 38 -19 30 -3 -8
-11 -2 -23 19 -20 34 -43 45 -25 13 17 -34 11 -34 -25 -2 -60 52 -60 34 -1
-20z m94 -110 c-3 -8 -7 -3 -11 10 -4 17 -3 21 5 13 5 -5 8 -16 6 -23z"/>
<path d="M2460 3310 c12 -8 -16 -14 -108 -26 -29 -4 -54 -10 -57 -14 -8 -13
77 -10 119 4 24 8 60 12 82 9 30 -4 43 -1 56 14 16 18 15 18 -43 19 -33 0 -55
-2 -49 -6z"/>
<path d="M2600 3312 c0 -12 19 -26 26 -19 2 2 -2 10 -11 17 -9 8 -15 8 -15 2z"/>
<path d="M4500 3263 c14 -9 43 -30 65 -47 22 -17 33 -22 25 -12 -19 25 -90 76
-104 76 -6 0 1 -8 14 -17z"/>
<path d="M2353 3236 c5 -13 2 -15 -16 -11 -19 5 -23 2 -25 -21 -1 -15 -7 -33
-13 -40 -6 -7 -7 -28 -3 -51 10 -54 44 -143 55 -143 12 0 12 17 -1 25 -5 3
-10 11 -10 18 0 8 3 8 12 -1 19 -19 33 -14 15 6 -10 10 -17 26 -17 35 0 9 -4
19 -10 22 -5 3 -10 28 -10 56 0 41 3 49 18 49 10 0 29 -12 43 -26 36 -38 76
-57 97 -45 9 6 12 11 5 11 -19 0 -87 49 -89 65 -1 7 4 16 12 19 8 3 14 2 14
-2 0 -4 20 -8 45 -9 67 -2 55 11 -27 31 -40 10 -79 20 -87 23 -10 4 -12 1 -8
-11z m30 -33 c-7 -2 -19 -2 -25 0 -7 3 -2 5 12 5 14 0 19 -2 13 -5z"/>
<path d="M2862 3199 c-13 -5 -36 -19 -50 -30 l-27 -21 25 7 c14 4 48 17 75 30
39 18 45 23 25 24 -14 0 -36 -4 -48 -10z"/>
<path d="M2445 3180 c-19 -8 -19 -9 3 -9 12 -1 22 4 22 9 0 6 -1 10 -2 9 -2 0
-12 -4 -23 -9z"/>
<path d="M4610 3181 c0 -6 4 -13 10 -16 6 -3 7 1 4 9 -7 18 -14 21 -14 7z"/>
<path d="M3711 3129 c-15 -57 -29 -89 -46 -101 -6 -5 -6 -8 2 -8 21 0 52 50
59 95 9 66 0 74 -15 14z"/>
<path d="M4580 3166 c0 -2 7 -7 16 -10 8 -3 12 -2 9 4 -6 10 -25 14 -25 6z"/>
<path d="M3648 3133 c16 -3 22 -10 18 -19 -3 -9 -1 -12 4 -9 21 13 10 35 -17
34 -25 -2 -26 -2 -5 -6z"/>
<path d="M2523 3103 c9 -2 23 -2 30 0 6 3 -1 5 -18 5 -16 0 -22 -2 -12 -5z"/>
<path d="M4480 3070 c0 -15 7 -20 29 -20 58 0 180 -56 333 -151 183 -115 448
-260 448 -245 0 3 -17 14 -37 27 -64 37 -164 100 -263 164 -266 172 -407 245
-476 245 -27 0 -34 -4 -34 -20z"/>
<path d="M2715 2955 c-71 -18 -106 -22 -167 -18 -55 4 -78 3 -78 -6 0 -6 15
-12 33 -12 17 -1 43 -3 57 -4 89 -10 160 -3 160 16 0 5 11 9 24 9 13 0 34 9
47 20 13 10 22 19 19 19 -3 -1 -45 -12 -95 -24z"/>
<path d="M4226 2793 c-6 -14 -5 -15 5 -6 7 7 10 15 7 18 -3 3 -9 -2 -12 -12z"/>
<path d="M4187 2683 c-70 -233 -90 -380 -91 -658 -1 -173 2 -221 17 -275 29
-104 76 -194 94 -177 3 3 -9 48 -26 99 -80 244 -91 339 -66 578 18 178 43 309
82 433 13 44 23 81 20 83 -2 2 -16 -35 -30 -83z m-8 -1047 c6 -16 10 -31 8
-33 -7 -7 -47 94 -62 159 -24 102 -16 101 14 -2 16 -52 34 -108 40 -124z"/>
<path d="M4900 2666 c-47 -34 -142 -139 -200 -220 -19 -25 -41 -46 -51 -46
-46 0 -187 -301 -239 -510 -29 -115 -32 -121 -40 -85 -13 53 -10 180 5 270 17
97 14 127 -5 43 -19 -85 -24 -240 -11 -307 9 -46 9 -100 1 -228 -10 -139 -9
-197 4 -338 15 -166 44 -350 53 -341 3 3 0 33 -5 68 -6 35 -16 131 -23 213
-15 196 -3 483 20 447 3 -6 6 24 6 66 1 55 11 112 34 200 19 67 36 121 38 118
3 -2 -3 -42 -13 -88 -13 -60 -18 -122 -17 -222 1 -122 -1 -137 -13 -115 -10
18 -13 20 -14 7 0 -9 11 -30 25 -45 l26 -28 -7 60 c-26 221 21 480 123 676 63
121 108 173 55 64 -91 -186 -132 -369 -134 -600 -2 -155 -1 -163 29 -250 17
-49 34 -117 37 -150 5 -57 5 -59 -10 -35 -10 16 -13 18 -8 5 41 -111 67 -199
80 -270 9 -47 21 -85 26 -85 6 0 8 7 4 15 -11 29 10 14 64 -46 30 -34 68 -68
83 -76 l29 -14 -69 -33 c-37 -19 -84 -50 -102 -70 l-35 -36 90 1 c49 1 81 3
70 6 -16 4 -13 9 15 33 30 25 33 31 22 49 -17 28 -17 28 18 40 36 12 34 37 -2
33 -16 -1 -20 1 -11 6 9 6 -4 27 -49 76 -34 37 -64 65 -67 62 -2 -3 -14 -1
-26 5 -19 9 -19 8 -2 -3 44 -30 66 -50 66 -59 0 -18 -20 -9 -61 28 -33 30 -38
38 -25 45 9 5 21 6 28 2 7 -4 8 -3 4 4 -4 7 -13 12 -19 12 -8 0 -19 37 -30 98
-23 124 -58 279 -52 228 2 -21 1 -52 -3 -70 l-6 -31 -7 40 c-11 59 -11 117 1
110 6 -3 10 0 10 8 0 8 -7 17 -15 21 -8 3 -15 16 -14 28 1 22 1 22 9 -2 7 -20
8 -21 9 -5 0 11 -6 31 -14 45 -13 23 -14 23 -16 5 0 -11 -7 0 -15 25 -18 55
-21 136 -12 260 5 64 4 88 -2 75 -13 -27 -3 67 16 155 49 222 141 415 247 522
48 48 64 76 25 42 l-23 -19 18 22 c11 12 24 20 30 18 7 -1 34 21 61 51 56 62
51 68 -14 20z m-25 -46 c-10 -11 -20 -18 -23 -16 -5 6 21 35 32 36 5 0 1 -9
-9 -20z m-75 -1720 c0 -5 -2 -10 -4 -10 -3 0 -8 5 -11 10 -3 6 -1 10 4 10 6 0
11 -4 11 -10z m38 -141 c6 -33 -95 -82 -105 -52 -3 7 9 27 26 44 33 33 73 37
79 8z m-112 -35 c-3 -9 -6 -20 -6 -25 0 -5 -12 -9 -27 -9 l-26 0 23 25 c27 28
45 33 36 9z"/>
<path d="M2212 2615 c-67 -58 -249 -309 -371 -513 -68 -115 -140 -298 -155
-397 -4 -22 6 3 22 55 29 98 75 209 120 289 107 193 317 489 398 560 26 22 42
41 37 41 -5 0 -28 -16 -51 -35z"/>
<path d="M5306 2642 c12 -11 64 -33 64 -27 0 5 -56 35 -67 35 -4 0 -3 -4 3 -8z"/>
<path d="M5380 2606 c0 -2 7 -7 16 -10 8 -3 12 -2 9 4 -6 10 -25 14 -25 6z"/>
<path d="M5460 2443 c1 -8 59 -215 103 -363 14 -47 31 -96 37 -110 l10 -25 -4
25 c-15 96 -125 480 -138 480 -4 0 -8 -3 -8 -7z"/>
<path d="M4423 2305 c-3 -9 -3 -18 -1 -21 3 -3 8 4 11 16 6 23 -1 27 -10 5z"/>
<path d="M4406 2255 c-3 -9 -6 -22 -5 -28 0 -7 5 -1 10 12 5 13 8 26 5 28 -2
2 -6 -3 -10 -12z"/>
<path d="M4391 2194 c0 -11 3 -14 6 -6 3 7 2 16 -1 19 -3 4 -6 -2 -5 -13z"/>
<path d="M2541 2142 c-53 -131 -72 -236 -76 -417 l-3 -170 8 160 c8 168 27
270 75 403 32 88 29 104 -4 24z"/>
<path d="M5697 2070 c19 -33 40 -63 46 -67 11 -7 10 -4 -40 75 -46 71 -50 66
-6 -8z"/>
<path d="M4869 2049 c-78 -87 -139 -174 -139 -200 0 -14 7 -19 25 -19 28 0 32
-12 10 -30 -17 -14 -20 -50 -4 -50 11 0 184 121 319 222 64 49 89 50 53 4 -10
-14 -65 -82 -122 -152 -113 -139 -206 -275 -216 -317 -16 -64 57 -40 199 65
43 33 81 56 84 53 3 -3 -12 -24 -35 -48 -48 -51 -157 -186 -201 -249 -35 -51
-59 -103 -42 -93 6 3 10 12 10 20 0 13 68 109 124 176 17 20 40 47 50 60 26
33 135 158 163 188 34 36 28 47 -9 15 -18 -15 -32 -31 -31 -35 1 -4 -5 -13
-15 -21 -15 -12 -16 -11 -3 5 20 25 1 21 -28 -7 -47 -44 -221 -156 -242 -156
-16 0 -19 4 -14 23 11 38 106 175 227 327 119 151 144 187 133 198 -7 7 -65
-23 -92 -47 -10 -9 -29 -24 -43 -33 -39 -27 -164 -116 -175 -126 -27 -22 -87
-54 -92 -49 -5 6 74 85 183 183 68 61 128 144 103 144 -7 0 -70 -58 -140 -130
-82 -83 -135 -130 -149 -130 -11 0 -20 4 -20 8 0 27 162 236 204 264 8 6 8 8
0 8 -7 0 -40 -32 -75 -71z m120 -36 c-67 -70 -103 -102 -114 -103 -5 0 26 36
70 80 83 83 121 104 44 23z"/>
<path d="M5774 1948 c15 -26 26 -54 26 -62 0 -9 4 -16 10 -16 5 0 15 -18 21
-40 7 -21 15 -37 19 -35 11 7 37 -48 49 -105 22 -99 23 -106 11 -90 -14 22
-12 2 7 -55 22 -66 27 -436 13 -804 -6 -145 -9 -266 -6 -268 3 -3 11 7 17 23
8 20 13 186 15 553 1 288 5 525 8 528 3 3 -3 28 -14 57 -10 28 -21 81 -25 118
-4 37 -11 80 -16 95 -7 22 -7 19 -3 -17 3 -25 7 -58 10 -75 4 -23 3 -26 -5
-15 -6 8 -16 48 -22 89 -10 57 -14 69 -20 53 -5 -12 -6 -30 -3 -40 5 -14 3
-14 -10 2 -9 11 -16 26 -16 34 0 7 -4 11 -9 8 -5 -3 -12 1 -15 10 -4 10 -2 13
7 8 6 -4 -1 7 -18 23 -16 16 -36 38 -43 49 -7 10 -2 -2 12 -28z m163 -1410
c-2 -13 -4 -5 -4 17 -1 22 1 32 4 23 2 -10 2 -28 0 -40z"/>
<path d="M5786 1977 c3 -10 9 -15 12 -12 3 3 0 11 -7 18 -10 9 -11 8 -5 -6z"/>
<path d="M5611 1930 c0 -8 4 -24 9 -35 5 -13 9 -14 9 -5 0 8 -4 24 -9 35 -5
13 -9 14 -9 5z"/>
<path d="M5812 1810 c0 -14 2 -19 5 -12 2 6 2 18 0 25 -3 6 -5 1 -5 -13z"/>
<path d="M5822 1755 c0 -16 2 -22 5 -12 2 9 2 23 0 30 -3 6 -5 -1 -5 -18z"/>
<path d="M5852 1770 c0 -8 6 -31 13 -50 7 -19 13 -28 13 -20 0 8 -6 31 -13 50
-7 19 -13 28 -13 20z"/>
<path d="M5831 1694 c0 -11 3 -14 6 -6 3 7 2 16 -1 19 -3 4 -6 -2 -5 -13z"/>
<path d="M5891 1634 c0 -11 3 -14 6 -6 3 7 2 16 -1 19 -3 4 -6 -2 -5 -13z"/>
<path d="M4491 1458 c-1 -26 6 -45 24 -64 29 -31 32 -26 8 19 -9 17 -19 43
-24 57 -6 22 -7 21 -8 -12z"/>
<path d="M3997 1408 c-79 -225 -216 -653 -267 -838 -10 -36 -39 -137 -64 -225
-50 -173 -76 -285 -75 -325 0 -29 84 225 159 480 28 96 55 186 60 200 5 14 14
45 20 69 18 70 23 40 6 -40 -26 -130 -96 -621 -95 -664 1 -25 17 40 29 120 36
240 234 1110 279 1228 11 28 6 37 -19 37 -12 0 -23 -15 -33 -42z"/>
<path d="M4540 1355 c0 -5 5 -17 10 -25 5 -8 10 -10 10 -5 0 6 -5 17 -10 25
-5 8 -10 11 -10 5z"/>
<path d="M3406 1283 c-27 -93 -12 -486 30 -803 13 -96 21 -144 18 -107 -17
236 -25 473 -22 681 2 176 0 240 -9 243 -6 2 -14 -4 -17 -14z"/>
<path d="M4422 870 c0 -14 2 -19 5 -12 2 6 2 18 0 25 -3 6 -5 1 -5 -13z"/>
<path d="M4792 630 c-7 -11 -26 -23 -42 -27 -17 -3 -30 -12 -30 -19 0 -7 -11
-21 -25 -30 -14 -9 -25 -21 -25 -27 0 -5 8 -3 18 6 10 10 22 17 26 17 8 0 4
-75 -20 -358 -17 -210 -17 -192 1 -192 11 0 15 11 15 36 0 30 3 35 18 29 20
-8 439 -28 456 -21 6 2 -18 5 -54 7 l-65 2 80 8 c138 16 153 8 55 -26 -70 -25
-80 -31 -56 -33 40 -5 116 7 116 18 0 5 -13 4 -30 -1 -16 -6 -35 -9 -42 -6 -7
2 1 8 17 11 17 4 41 13 55 21 45 24 133 45 186 45 29 0 56 5 59 11 5 7 -8 9
-41 5 l-49 -6 50 19 c28 11 70 20 95 21 30 1 39 4 26 9 -15 6 -10 10 23 21 44
14 63 30 37 30 -8 0 -51 -11 -96 -25 -74 -24 -101 -27 -378 -35 -163 -5 -330
-14 -371 -20 -41 -6 -76 -8 -79 -5 -3 3 -1 105 5 228 l11 222 37 31 c21 17 36
36 34 43 -2 6 -9 3 -17 -9z m568 -520 c-118 -41 -538 -62 -622 -31 -22 8 -22
8 -3 14 82 23 226 34 490 35 l190 1 -55 -19z"/>
<path d="M1627 533 c23 -44 52 -76 88 -98 21 -14 15 -4 -21 30 -27 28 -58 61
-67 75 -17 23 -17 23 0 -7z"/>
<path d="M4484 545 c-7 -17 0 -233 13 -442 l6 -103 38 0 c22 0 39 3 39 8 0 4
-6 41 -14 82 -19 104 -29 186 -21 178 10 -10 32 -120 40 -200 4 -38 12 -68 17
-68 5 0 7 12 4 28 -3 15 -10 74 -16 132 -16 169 -20 190 -40 210 -14 14 -21
42 -27 101 -8 80 -25 112 -39 74z"/>
<path d="M1755 410 c3 -5 11 -10 16 -10 6 0 7 5 4 10 -3 6 -11 10 -16 10 -6 0
-7 -4 -4 -10z"/>
<path d="M1540 381 c0 -5 9 -29 19 -54 16 -38 17 -47 5 -58 -24 -25 70 -269
103 -269 10 0 8 11 -7 40 -24 47 -5 45 25 -3 13 -21 30 -33 48 -35 22 -3 26 0
20 14 -6 17 -5 17 17 1 16 -11 44 -17 83 -17 l58 0 -25 33 c-34 44 -63 115
-80 195 -8 37 -15 56 -15 42 -1 -14 6 -52 14 -85 9 -32 14 -63 12 -69 -2 -5
-22 14 -46 44 -112 145 -136 170 -168 170 -15 0 -28 10 -38 30 -16 30 -25 38
-25 21z m136 -154 c15 -17 45 -58 67 -91 22 -34 51 -73 65 -88 19 -20 22 -28
11 -28 -34 0 -150 139 -187 223 -16 38 -15 56 3 33 8 -11 27 -33 41 -49z"/>
<path d="M2336 138 c-15 -62 -30 -119 -33 -127 -3 -8 -1 -11 5 -7 15 9 73 246
60 246 -2 0 -17 -51 -32 -112z"/>
<path d="M3471 174 c0 -11 3 -14 6 -6 3 7 2 16 -1 19 -3 4 -6 -2 -5 -13z"/>
<path d="M5678 153 c6 -2 18 -2 25 0 6 3 1 5 -13 5 -14 0 -19 -2 -12 -5z"/>
<path d="M5755 130 c-49 -16 -164 -50 -255 -77 l-165 -48 57 -3 c32 -2 81 4
109 13 64 18 84 19 44 0 -27 -12 -6 -13 181 -14 181 -1 213 1 225 15 9 12 10
20 2 33 -7 11 -8 23 -1 34 12 23 -11 31 -59 22 l-37 -7 23 20 c27 21 21 43
-12 41 -12 -1 -62 -14 -112 -29z"/>
<path d="M3481 104 c0 -11 3 -14 6 -6 3 7 2 16 -1 19 -3 4 -6 -2 -5 -13z"/>
<path d="M3491 24 c0 -11 3 -14 6 -6 3 7 2 16 -1 19 -3 4 -6 -2 -5 -13z"/>
<path d="M4968 33 c7 -3 16 -2 19 1 4 3 -2 6 -13 5 -11 0 -14 -3 -6 -6z"/>
<path d="M3731 14 c0 -11 3 -14 6 -6 3 7 2 16 -1 19 -3 4 -6 -2 -5 -13z"/>
<path d="M4865 20 c-25 -11 1 -11 35 0 20 6 21 8 5 8 -11 0 -29 -3 -40 -8z"/>
</g>
</svg>
